<mxfile host="app.diagrams.net" agent="Mozilla/5.0 (Windows NT 10.0; Win64; x64) AppleWebKit/537.36 (KHTML, like Gecko) Chrome/127.0.0.0 Safari/537.36 Edg/127.0.0.0" version="24.7.6">
  <diagram name="Connection Management - Device Node" id="AGkvYJ75hnm-VDpsLQri">
    <mxGraphModel dx="746" dy="431" grid="1" gridSize="10" guides="1" tooltips="1" connect="1" arrows="1" fold="1" page="1" pageScale="1" pageWidth="850" pageHeight="1100" math="0" shadow="0">
      <root>
        <mxCell id="0" />
        <mxCell id="1" parent="0" />
        <mxCell id="B_XON3Rb5YulpnurXmPt-1" value="&lt;b&gt;connection inactive&lt;/b&gt;&lt;div style=&quot;text-align: left;&quot;&gt;TX_active = 0&lt;/div&gt;&lt;div style=&quot;text-align: left;&quot;&gt;OC_RQST = 0&lt;/div&gt;" style="rounded=1;whiteSpace=wrap;html=1;" vertex="1" parent="1">
          <mxGeometry x="30" y="120" width="140" height="75" as="geometry" />
        </mxCell>
        <mxCell id="B_XON3Rb5YulpnurXmPt-8" style="edgeStyle=orthogonalEdgeStyle;rounded=0;orthogonalLoop=1;jettySize=auto;html=1;entryX=0;entryY=0.5;entryDx=0;entryDy=0;" edge="1" parent="1" source="B_XON3Rb5YulpnurXmPt-2" target="B_XON3Rb5YulpnurXmPt-7">
          <mxGeometry relative="1" as="geometry" />
        </mxCell>
        <mxCell id="B_XON3Rb5YulpnurXmPt-19" style="edgeStyle=orthogonalEdgeStyle;rounded=0;orthogonalLoop=1;jettySize=auto;html=1;exitX=0;exitY=1;exitDx=0;exitDy=0;entryX=1;entryY=0.5;entryDx=0;entryDy=0;" edge="1" parent="1" source="B_XON3Rb5YulpnurXmPt-2" target="B_XON3Rb5YulpnurXmPt-18">
          <mxGeometry relative="1" as="geometry">
            <Array as="points">
              <mxPoint x="320" y="240" />
              <mxPoint x="240" y="240" />
              <mxPoint x="240" y="395" />
            </Array>
          </mxGeometry>
        </mxCell>
        <mxCell id="B_XON3Rb5YulpnurXmPt-2" value="&lt;b&gt;connection active&lt;/b&gt;&lt;div style=&quot;text-align: left;&quot;&gt;TX_active = 1&lt;/div&gt;" style="rounded=0;whiteSpace=wrap;html=1;" vertex="1" parent="1">
          <mxGeometry x="320" y="200" width="120" height="80" as="geometry" />
        </mxCell>
        <mxCell id="B_XON3Rb5YulpnurXmPt-5" value="&lt;i&gt;{OC_RQST === 1} &amp;amp;&amp;amp;&amp;nbsp;&lt;/i&gt;&lt;div&gt;&lt;i&gt;{TX_active = 0}&lt;/i&gt;&lt;/div&gt;" style="text;html=1;align=center;verticalAlign=middle;resizable=0;points=[];autosize=1;strokeColor=none;fillColor=none;" vertex="1" parent="1">
          <mxGeometry x="290" y="120" width="150" height="40" as="geometry" />
        </mxCell>
        <mxCell id="B_XON3Rb5YulpnurXmPt-7" value="&lt;b&gt;Opening&lt;/b&gt;&lt;div&gt;&lt;b&gt;Acknowledgement&lt;/b&gt;&lt;div style=&quot;text-align: left;&quot;&gt;OC_RQST = 0&lt;/div&gt;&lt;div style=&quot;text-align: left;&quot;&gt;OC_ACK = 1&lt;/div&gt;&lt;/div&gt;&lt;div style=&quot;text-align: left;&quot;&gt;send CM frame&lt;/div&gt;" style="rounded=0;whiteSpace=wrap;html=1;" vertex="1" parent="1">
          <mxGeometry x="570" y="200" width="120" height="80" as="geometry" />
        </mxCell>
        <mxCell id="B_XON3Rb5YulpnurXmPt-9" value="&lt;i&gt;{OC_RQST == 1 }&lt;/i&gt;&lt;div&gt;&lt;i&gt;&amp;amp;&amp;amp;&lt;/i&gt;&lt;/div&gt;&lt;div&gt;&lt;i&gt;{TX_active == 1}&lt;/i&gt;&lt;/div&gt;" style="text;html=1;align=center;verticalAlign=middle;resizable=0;points=[];autosize=1;strokeColor=none;fillColor=none;" vertex="1" parent="1">
          <mxGeometry x="440" y="185" width="120" height="60" as="geometry" />
        </mxCell>
        <mxCell id="B_XON3Rb5YulpnurXmPt-14" value="&lt;b&gt;connection already open&lt;/b&gt;&lt;div&gt;&lt;b&gt;&lt;br&gt;&lt;/b&gt;&lt;div style=&quot;text-align: left;&quot;&gt;NERR = 5&lt;/div&gt;&lt;/div&gt;&lt;div style=&quot;text-align: left;&quot;&gt;send error frame&lt;/div&gt;" style="rounded=0;whiteSpace=wrap;html=1;" vertex="1" parent="1">
          <mxGeometry x="320" y="360" width="120" height="80" as="geometry" />
        </mxCell>
        <mxCell id="B_XON3Rb5YulpnurXmPt-15" value="" style="endArrow=classic;html=1;rounded=0;exitX=0.75;exitY=1;exitDx=0;exitDy=0;entryX=0.75;entryY=0;entryDx=0;entryDy=0;" edge="1" parent="1" source="B_XON3Rb5YulpnurXmPt-2" target="B_XON3Rb5YulpnurXmPt-14">
          <mxGeometry width="50" height="50" relative="1" as="geometry">
            <mxPoint x="480" y="280" as="sourcePoint" />
            <mxPoint x="530" y="230" as="targetPoint" />
          </mxGeometry>
        </mxCell>
        <mxCell id="B_XON3Rb5YulpnurXmPt-16" value="&lt;i&gt;{OC_RQST == 1} &amp;amp;&amp;amp; {Tx_active == 0}&lt;/i&gt;" style="text;html=1;align=center;verticalAlign=middle;whiteSpace=wrap;rounded=0;" vertex="1" parent="1">
          <mxGeometry x="420" y="310" width="120" height="30" as="geometry" />
        </mxCell>
        <mxCell id="B_XON3Rb5YulpnurXmPt-17" value="" style="endArrow=classic;html=1;rounded=0;exitX=0.25;exitY=0;exitDx=0;exitDy=0;entryX=0.25;entryY=1;entryDx=0;entryDy=0;" edge="1" parent="1" source="B_XON3Rb5YulpnurXmPt-14" target="B_XON3Rb5YulpnurXmPt-2">
          <mxGeometry width="50" height="50" relative="1" as="geometry">
            <mxPoint x="480" y="280" as="sourcePoint" />
            <mxPoint x="530" y="230" as="targetPoint" />
          </mxGeometry>
        </mxCell>
        <mxCell id="B_XON3Rb5YulpnurXmPt-26" style="edgeStyle=orthogonalEdgeStyle;rounded=0;orthogonalLoop=1;jettySize=auto;html=1;entryX=0.5;entryY=1;entryDx=0;entryDy=0;" edge="1" parent="1" source="B_XON3Rb5YulpnurXmPt-18" target="B_XON3Rb5YulpnurXmPt-1">
          <mxGeometry relative="1" as="geometry" />
        </mxCell>
        <mxCell id="B_XON3Rb5YulpnurXmPt-18" value="&lt;b&gt;Closing acknowledgement&lt;/b&gt;&lt;br&gt;&lt;div&gt;&lt;b&gt;&lt;br&gt;&lt;/b&gt;&lt;div style=&quot;text-align: left;&quot;&gt;TX_active = 0&lt;/div&gt;&lt;/div&gt;&lt;div style=&quot;text-align: left;&quot;&gt;CC_RQST = 0&lt;/div&gt;&lt;div style=&quot;text-align: left;&quot;&gt;CC_ACK = 1&lt;/div&gt;" style="rounded=0;whiteSpace=wrap;html=1;" vertex="1" parent="1">
          <mxGeometry x="30" y="350" width="140" height="90" as="geometry" />
        </mxCell>
        <mxCell id="B_XON3Rb5YulpnurXmPt-20" value="&lt;i&gt;{CC_RQST == 1}&lt;/i&gt;&lt;div&gt;&lt;i&gt;&amp;amp;&amp;amp;&lt;/i&gt;&lt;/div&gt;&lt;div&gt;&lt;i&gt;{TX_active==0}&lt;/i&gt;&lt;/div&gt;" style="text;html=1;align=center;verticalAlign=middle;resizable=0;points=[];autosize=1;strokeColor=none;fillColor=none;" vertex="1" parent="1">
          <mxGeometry x="170" y="390" width="120" height="60" as="geometry" />
        </mxCell>
        <mxCell id="B_XON3Rb5YulpnurXmPt-21" value="" style="endArrow=classic;html=1;rounded=0;entryX=0.75;entryY=0;entryDx=0;entryDy=0;" edge="1" parent="1" target="B_XON3Rb5YulpnurXmPt-7">
          <mxGeometry width="50" height="50" relative="1" as="geometry">
            <mxPoint x="660" y="160" as="sourcePoint" />
            <mxPoint x="655" y="80" as="targetPoint" />
          </mxGeometry>
        </mxCell>
        <mxCell id="B_XON3Rb5YulpnurXmPt-25" value="" style="endArrow=none;html=1;rounded=0;exitX=1;exitY=0.5;exitDx=0;exitDy=0;" edge="1" parent="1" source="B_XON3Rb5YulpnurXmPt-1">
          <mxGeometry width="50" height="50" relative="1" as="geometry">
            <mxPoint x="180" y="160" as="sourcePoint" />
            <mxPoint x="660" y="160" as="targetPoint" />
          </mxGeometry>
        </mxCell>
        <mxCell id="B_XON3Rb5YulpnurXmPt-27" value="&lt;b&gt;connection already closed&lt;/b&gt;&lt;div&gt;&lt;div style=&quot;text-align: left;&quot;&gt;NERR = 6&lt;/div&gt;&lt;/div&gt;&lt;div style=&quot;text-align: left;&quot;&gt;send error frame&lt;/div&gt;" style="rounded=0;whiteSpace=wrap;html=1;" vertex="1" parent="1">
          <mxGeometry x="30" y="10" width="140" height="60" as="geometry" />
        </mxCell>
        <mxCell id="B_XON3Rb5YulpnurXmPt-29" value="" style="endArrow=classic;html=1;rounded=0;exitX=0.25;exitY=1;exitDx=0;exitDy=0;entryX=0.25;entryY=0;entryDx=0;entryDy=0;" edge="1" parent="1" source="B_XON3Rb5YulpnurXmPt-27" target="B_XON3Rb5YulpnurXmPt-1">
          <mxGeometry width="50" height="50" relative="1" as="geometry">
            <mxPoint x="480" y="250" as="sourcePoint" />
            <mxPoint x="530" y="200" as="targetPoint" />
          </mxGeometry>
        </mxCell>
        <mxCell id="B_XON3Rb5YulpnurXmPt-30" value="" style="endArrow=classic;html=1;rounded=0;exitX=0.75;exitY=0;exitDx=0;exitDy=0;entryX=0.75;entryY=1;entryDx=0;entryDy=0;" edge="1" parent="1" source="B_XON3Rb5YulpnurXmPt-1" target="B_XON3Rb5YulpnurXmPt-27">
          <mxGeometry width="50" height="50" relative="1" as="geometry">
            <mxPoint x="480" y="250" as="sourcePoint" />
            <mxPoint x="530" y="200" as="targetPoint" />
          </mxGeometry>
        </mxCell>
        <mxCell id="B_XON3Rb5YulpnurXmPt-31" value="&lt;i&gt;{CC_RQST == 1} &amp;amp;&amp;amp; {TX_active == 0}&lt;/i&gt;" style="text;html=1;align=center;verticalAlign=middle;whiteSpace=wrap;rounded=0;" vertex="1" parent="1">
          <mxGeometry x="140" y="80" width="220" height="30" as="geometry" />
        </mxCell>
      </root>
    </mxGraphModel>
  </diagram>
</mxfile>
